HIERARCHY
ROOT Hips
{
	OFFSET 0.000000 121.760803 0.000000
	CHANNELS 6 Xposition Yposition Zposition Xrotation Yrotation Zrotation 
	JOINT Spine
	{
		OFFSET 0.072000 7.257294 -0.789700
		CHANNELS 3 Xrotation Yrotation Zrotation
		JOINT Spine1
		{
			OFFSET 0.000000 12.508769 -0.658067
			CHANNELS 3 Xrotation Yrotation Zrotation
			JOINT Spine1_split
			{
				OFFSET 0.000000 12.508769 -0.658067
				CHANNELS 3 Xrotation Yrotation Zrotation
				JOINT Spine2
				{
					OFFSET 0.000000 12.508769 -0.658067
					CHANNELS 3 Xrotation Yrotation Zrotation
					JOINT Neck
					{
						OFFSET 0.000000 14.033295 7.520400
						CHANNELS 3 Xrotation Yrotation Zrotation
						JOINT Head
						{
							OFFSET 0.000000 8.198502 5.703100
							CHANNELS 3 Xrotation Yrotation Zrotation
							JOINT HeadTop_End
							{
								OFFSET 0.000000 17.760803 13.332701
								CHANNELS 3 Xrotation Yrotation Zrotation
								End Site
								{
									OFFSET 0.000000 0.000000 0.000000
								}
							}
						}
					}
					JOINT LeftShoulder
					{
						OFFSET 6.292450 5.785301 -0.669000
						CHANNELS 3 Xrotation Yrotation Zrotation
						JOINT LeftShoulder_split
						{
							OFFSET 6.292450 5.785301 -0.669000
							CHANNELS 3 Xrotation Yrotation Zrotation
							JOINT LeftArm
							{
								OFFSET 13.907140 -6.093903 1.965100
								CHANNELS 3 Xrotation Yrotation Zrotation
								JOINT LeftForeArm
								{
									OFFSET 34.140198 0.000000 0.000000
									CHANNELS 3 Xrotation Yrotation Zrotation
									JOINT LeftHand
									{
										OFFSET 40.960209 0.000000 0.000000
										CHANNELS 3 Xrotation Yrotation Zrotation
										JOINT LeftHandThumb1
										{
											OFFSET 10.006996 -7.170425 9.573125
											CHANNELS 3 Xrotation Yrotation Zrotation
											JOINT LeftHandThumb2
											{
												OFFSET 1.835007 -1.059448 1.059443
												CHANNELS 3 Xrotation Yrotation Zrotation
												JOINT LeftHandThumb3
												{
													OFFSET 2.112267 -1.219513 1.219518
													CHANNELS 3 Xrotation Yrotation Zrotation
													JOINT LeftHandThumb4
													{
														OFFSET 4.843811 -2.796570 2.796576
														CHANNELS 3 Xrotation Yrotation Zrotation
														End Site
														{
															OFFSET 0.000000 0.000000 0.000000
														}
													}
												}
											}
										}
										JOINT LeftHandIndex1
										{
											OFFSET 18.389847 -0.922348 4.596882
											CHANNELS 3 Xrotation Yrotation Zrotation
											JOINT LeftHandIndex2
											{
												OFFSET 4.711273 0.000000 0.000000
												CHANNELS 3 Xrotation Yrotation Zrotation
												JOINT LeftHandIndex3
												{
													OFFSET 2.886131 0.000000 0.000000
													CHANNELS 3 Xrotation Yrotation Zrotation
													JOINT LeftHandIndex4
													{
														OFFSET 6.145912 0.000000 0.000000
														CHANNELS 3 Xrotation Yrotation Zrotation
														End Site
														{
															OFFSET 0.000000 0.000000 0.000000
														}
													}
												}
											}
										}
										JOINT LeftHandMiddle1
										{
											OFFSET 18.013008 0.000000 0.000000
											CHANNELS 3 Xrotation Yrotation Zrotation
											JOINT LeftHandMiddle2
											{
												OFFSET 4.946693 0.000000 0.000000
												CHANNELS 3 Xrotation Yrotation Zrotation
												JOINT LeftHandMiddle3
												{
													OFFSET 3.342232 0.000000 0.000000
													CHANNELS 3 Xrotation Yrotation Zrotation
													JOINT LeftHandMiddle4
													{
														OFFSET 4.461754 0.000000 0.000000
														CHANNELS 3 Xrotation Yrotation Zrotation
														End Site
														{
															OFFSET 0.000000 0.000000 0.000000
														}
													}
												}
											}
										}
										JOINT LeftHandRing1
										{
											OFFSET 15.849892 -0.102921 -4.126150
											CHANNELS 3 Xrotation Yrotation Zrotation
											JOINT LeftHandRing2
											{
												OFFSET 3.527054 0.000000 0.000000
												CHANNELS 3 Xrotation Yrotation Zrotation
												JOINT LeftHandRing3
												{
													OFFSET 2.961098 0.000000 0.000000
													CHANNELS 3 Xrotation Yrotation Zrotation
													JOINT LeftHandRing4
													{
														OFFSET 4.927200 0.000000 0.000000
														CHANNELS 3 Xrotation Yrotation Zrotation
														End Site
														{
															OFFSET 0.000000 0.000000 0.000000
														}
													}
												}
											}
										}
										JOINT LeftHandPinky1
										{
											OFFSET 12.791824 -0.832031 -6.799156
											CHANNELS 3 Xrotation Yrotation Zrotation
											JOINT LeftHandPinky2
											{
												OFFSET 3.327133 0.000000 0.000000
												CHANNELS 3 Xrotation Yrotation Zrotation
												JOINT LeftHandPinky3
												{
													OFFSET 3.014900 0.000000 0.000000
													CHANNELS 3 Xrotation Yrotation Zrotation
													JOINT LeftHandPinky4
													{
														OFFSET 5.847786 0.000000 0.000000
														CHANNELS 3 Xrotation Yrotation Zrotation
														End Site
														{
															OFFSET 0.000000 0.000000 0.000000
														}
													}
												}
											}
										}
									}
								}
							}
						}
					}
					JOINT RightShoulder
					{
						OFFSET -6.292450 5.785301 -0.669000
						CHANNELS 3 Xrotation Yrotation Zrotation
						JOINT RightShoulder_split
						{
							OFFSET -6.292450 5.785301 -0.669000
							CHANNELS 3 Xrotation Yrotation Zrotation
							JOINT RightArm
							{
								OFFSET -13.907140 -6.093903 1.965100
								CHANNELS 3 Xrotation Yrotation Zrotation
								JOINT RightForeArm
								{
									OFFSET -34.140198 0.000000 0.000000
									CHANNELS 3 Xrotation Yrotation Zrotation
									JOINT RightHand
									{
										OFFSET -40.960209 0.000000 0.000000
										CHANNELS 3 Xrotation Yrotation Zrotation
										JOINT RightHandThumb1
										{
											OFFSET -10.007050 -7.170456 9.573117
											CHANNELS 3 Xrotation Yrotation Zrotation
											JOINT RightHandThumb2
											{
												OFFSET -1.835007 -1.059448 1.059443
												CHANNELS 3 Xrotation Yrotation Zrotation
												JOINT RightHandThumb3
												{
													OFFSET -2.112267 -1.219513 1.219518
													CHANNELS 3 Xrotation Yrotation Zrotation
													JOINT RightHandThumb4
													{
														OFFSET -4.843834 -2.796585 2.796590
														CHANNELS 3 Xrotation Yrotation Zrotation
														End Site
														{
															OFFSET 0.000000 0.000000 0.000000
														}
													}
												}
											}
										}
										JOINT RightHandIndex1
										{
											OFFSET -18.389870 -0.922424 4.596786
											CHANNELS 3 Xrotation Yrotation Zrotation
											JOINT RightHandIndex2
											{
												OFFSET -4.711273 0.000000 0.000000
												CHANNELS 3 Xrotation Yrotation Zrotation
												JOINT RightHandIndex3
												{
													OFFSET -2.886131 0.000000 0.000000
													CHANNELS 3 Xrotation Yrotation Zrotation
													JOINT RightHandIndex4
													{
														OFFSET -6.145920 0.000000 0.000000
														CHANNELS 3 Xrotation Yrotation Zrotation
														End Site
														{
															OFFSET 0.000000 0.000000 0.000000
														}
													}
												}
											}
										}
										JOINT RightHandMiddle1
										{
											OFFSET -18.013008 0.000000 0.000000
											CHANNELS 3 Xrotation Yrotation Zrotation
											JOINT RightHandMiddle2
											{
												OFFSET -4.946693 0.000000 0.000000
												CHANNELS 3 Xrotation Yrotation Zrotation
												JOINT RightHandMiddle3
												{
													OFFSET -3.342232 0.000000 0.000000
													CHANNELS 3 Xrotation Yrotation Zrotation
													JOINT RightHandMiddle4
													{
														OFFSET -4.461754 0.000000 0.000000
														CHANNELS 3 Xrotation Yrotation Zrotation
														End Site
														{
															OFFSET 0.000000 0.000000 0.000000
														}
													}
												}
											}
										}
										JOINT RightHandRing1
										{
											OFFSET -15.849876 -0.102936 -4.126237
											CHANNELS 3 Xrotation Yrotation Zrotation
											JOINT RightHandRing2
											{
												OFFSET -3.527054 0.000000 0.000000
												CHANNELS 3 Xrotation Yrotation Zrotation
												JOINT RightHandRing3
												{
													OFFSET -2.961098 0.000000 0.000000
													CHANNELS 3 Xrotation Yrotation Zrotation
													JOINT RightHandRing4
													{
														OFFSET -4.927200 0.000000 0.000000
														CHANNELS 3 Xrotation Yrotation Zrotation
														End Site
														{
															OFFSET 0.000000 0.000000 0.000000
														}
													}
												}
											}
										}
										JOINT RightHandPinky1
										{
											OFFSET -12.791786 -0.832077 -6.799222
											CHANNELS 3 Xrotation Yrotation Zrotation
											JOINT RightHandPinky2
											{
												OFFSET -3.327133 0.000000 0.000000
												CHANNELS 3 Xrotation Yrotation Zrotation
												JOINT RightHandPinky3
												{
													OFFSET -3.014900 0.000000 0.000000
													CHANNELS 3 Xrotation Yrotation Zrotation
													JOINT RightHandPinky4
													{
														OFFSET -5.847786 0.000000 0.000000
														CHANNELS 3 Xrotation Yrotation Zrotation
														End Site
														{
															OFFSET 0.000000 0.000000 0.000000
														}
													}
												}
											}
										}
									}
								}
							}
						}
					}
				}
			}
		}
	}
	JOINT LeftUpLeg
	{
		OFFSET 13.026900 -6.336304 -1.092800
		CHANNELS 3 Xrotation Yrotation Zrotation
		JOINT LeftLeg
		{
			OFFSET 0.524474 -46.096886 9.782700
			CHANNELS 3 Xrotation Yrotation Zrotation
			JOINT LeftFoot
			{
				OFFSET -0.524474 -53.427422 -12.948200
				CHANNELS 3 Xrotation Yrotation Zrotation
				JOINT LeftToeBase
				{
					OFFSET 0.192200 -14.009700 16.364100
					CHANNELS 3 Xrotation Yrotation Zrotation
					JOINT LeftToe_End
					{
						OFFSET -1.784700 -0.561700 9.474800
						CHANNELS 3 Xrotation Yrotation Zrotation
						End Site
						{
							OFFSET 0.000000 0.000000 0.000000
						}
					}
				}
			}
		}
	}
	JOINT RightUpLeg
	{
		OFFSET -12.883000 -6.336304 -1.092800
		CHANNELS 3 Xrotation Yrotation Zrotation
		JOINT RightLeg
		{
			OFFSET -0.524587 -46.096825 9.782800
			CHANNELS 3 Xrotation Yrotation Zrotation
			JOINT RightFoot
			{
				OFFSET 0.524587 -53.427383 -12.948300
				CHANNELS 3 Xrotation Yrotation Zrotation
				JOINT RightToeBase
				{
					OFFSET -0.192200 -14.009700 16.364100
					CHANNELS 3 Xrotation Yrotation Zrotation
					JOINT RightToe_End
					{
						OFFSET 1.784700 -0.561700 9.474800
						CHANNELS 3 Xrotation Yrotation Zrotation
						End Site
						{
							OFFSET 0.000000 0.000000 0.000000
						}
					}
				}
			}
		}
	}
}
MOTION
Frames: 4
Frame Time: 0.016667
0.116680 116.327332 -0.846796 -0.284698 -0.007780 -2.770384 0.568155 -1.382592 0.768548 0.884704 -0.154384 2.637805 0.000000 0.000000 0.000000 0.868037 0.313564 2.550323 1.242740 -0.362780 0.178331 1.579608 0.543348 -5.747758 0.000000 -0.000000 -0.000000 0.000018 -0.000019 -0.312853 0.000000 0.000000 0.000000 3.284672 -25.851919 -73.291577 2.210832 -20.459229 0.701241 -31.889801 -2.761252 2.775353 15.772751 2.736682 17.226135 -2.095483 31.047796 -7.361446 -6.566818 4.137872 -2.408498 0.000000 0.000000 0.000000 2.369899 3.655770 -8.470937 -2.148822 2.464583 -18.676491 -1.905128 4.814348 -14.172563 -0.000000 0.000001 0.000002 -1.977816 5.701677 -13.647585 0.262673 5.095094 -26.987886 -0.653760 1.140647 -11.787436 0.000000 0.000000 0.000002 -3.264383 8.554505 -11.754379 4.032606 4.051324 -33.265231 2.108311 3.155440 -15.593173 -0.000001 -0.000000 -0.000001 -6.476558 11.333637 -23.247076 10.714839 2.545227 -34.824710 6.414200 3.075317 -15.312939 -0.000000 -0.000000 0.000000 0.000036 -0.000016 0.312819 0.000000 0.000000 0.000000 5.327960 -3.221400 75.188744 -0.286937 18.990002 0.139600 -7.879836 -10.226555 5.197520 15.779554 -2.730616 -17.214051 -2.090690 -31.045904 7.368365 -6.565835 -4.138832 2.408538 0.000000 0.000000 -0.000000 2.372140 -3.655208 8.489137 -2.148903 -2.464952 18.674617 -1.906870 -4.812198 14.174155 -0.000000 0.000000 -0.000002 -1.976884 -5.701819 13.665528 0.262180 -5.094026 26.988700 -0.653533 -1.141633 11.787576 -0.000000 -0.000000 -0.000001 -3.260106 -8.214673 11.646179 4.031943 -4.048817 33.264760 2.108255 -3.155414 15.594707 0.000001 0.000000 0.000001 -6.475834 -11.337694 23.265617 10.714914 -2.543893 34.823747 6.414500 -3.075693 15.312313 0.000000 -0.000000 0.000000 -17.910897 11.867100 13.598682 20.057878 11.513075 0.890441 -0.993848 2.857297 -7.910030 -0.473464 -0.000558 -0.000007 0.000000 -0.000001 -0.000000 -5.032514 -4.156288 2.135299 16.862357 -2.721834 3.749351 -11.360618 -0.157690 -2.887689 -0.586283 -0.000186 -0.000007 -0.000000 0.000001 0.000000 
0.110598 116.222054 -1.076532 -0.837137 -1.545192 -2.753115 0.969985 -1.408812 0.659538 0.988844 -0.196637 2.609326 0.000000 0.000000 0.000000 0.973522 0.242327 2.527079 0.800251 -0.229904 0.204902 1.905006 1.915863 -5.833862 -0.000000 0.000000 0.000000 0.977385 0.015267 -0.358209 0.000000 0.000000 0.000000 4.946914 -23.826282 -70.973206 1.945032 -20.731313 0.649412 -36.056910 -1.976707 -1.857864 15.407472 1.746475 17.954499 -2.095507 31.047786 -7.361446 -6.566794 4.137838 -2.408510 0.000001 0.000001 -0.000001 1.840531 3.540811 -7.141729 -2.148890 2.464592 -18.676573 -1.905112 4.814334 -14.172557 0.000001 -0.000000 -0.000000 -2.530930 5.645465 -12.530534 0.262688 5.095126 -26.987838 -0.653761 1.140648 -11.787447 0.000000 0.000000 0.000001 -4.418427 8.570465 -10.380002 4.032626 4.051340 -33.265200 2.108329 3.155448 -15.593166 0.000001 0.000000 0.000001 -9.388728 12.326874 -21.725732 10.714854 2.545267 -34.824662 6.414207 3.075311 -15.312917 0.000001 0.000000 0.000001 0.066990 0.243802 0.207524 0.000000 0.000000 0.000000 5.191605 -0.509940 74.572839 -0.334877 18.540946 0.163070 -8.606973 -11.105646 5.741657 15.705844 -2.715118 -17.123168 -2.084090 -31.018747 7.320490 -6.508171 -4.256368 2.326871 -0.000000 -0.000003 -0.000001 2.384400 -3.660980 8.652041 -2.108224 -2.555853 19.242123 -1.875050 -4.904196 14.730971 -0.000000 0.000000 -0.000001 -1.938399 -5.830316 14.312356 0.313804 -5.184773 27.595004 -0.635383 -1.215592 12.220366 0.000000 -0.000001 0.000001 -3.089756 -8.298426 13.039116 4.090660 -4.145255 34.052939 2.131810 -3.250248 16.222604 0.000001 -0.000001 0.000004 -6.399151 -12.088544 25.656984 10.741960 -2.614779 35.856891 6.434739 -3.169145 16.189497 0.000000 0.000000 -0.000000 -17.537081 13.059451 14.154144 20.416648 13.036038 1.030317 -1.235350 1.589735 -8.318201 -0.473492 -0.000529 -0.000017 0.000000 -0.000003 -0.000000 -5.705910 -4.047345 1.950217 18.262727 -2.086760 3.727814 -10.633840 1.243050 -2.553179 -0.715042 0.000129 -0.156453 -0.000000 -0.000000 0.000000 
0.159592 115.943840 -1.594837 -1.534203 -3.463914 -2.851356 2.032777 -1.490781 0.471258 1.261821 -0.310409 2.528742 0.000000 0.000000 0.000000 1.249909 0.054708 2.460124 0.302905 0.013837 0.261822 1.321120 3.847864 -5.697074 0.000000 0.000000 0.000000 1.986222 0.122395 -0.120703 0.000000 0.000000 0.000000 8.094356 -24.899067 -68.198530 1.185690 -21.611466 0.480243 -46.872788 -1.105430 -4.618159 14.460929 -0.788078 19.800008 -2.095500 31.047738 -7.361381 -6.566819 4.137870 -2.408519 0.000000 -0.000001 -0.000004 0.457201 3.136087 -3.650724 -2.148837 2.464596 -18.676520 -1.905141 4.814323 -14.172554 0.000000 0.000000 -0.000002 -3.994987 5.400554 -9.596929 0.262666 5.095094 -26.987833 -0.653779 1.140641 -11.787417 0.000000 -0.000001 0.000004 -7.324064 8.382267 -6.964737 4.032596 4.051317 -33.265248 2.108323 3.155461 -15.593187 0.000000 0.000001 0.000002 -15.986891 14.066125 -18.223909 10.714840 2.545247 -34.824700 6.414195 3.075330 -15.312905 0.000001 -0.000000 -0.000002 0.253463 0.912356 -0.080289 0.000000 0.000000 0.000000 3.636564 1.596726 74.135235 -0.350374 17.651420 0.182498 -7.428752 -12.080564 7.196925 15.498693 -2.672592 -16.866932 -2.065284 -30.942383 7.184823 -6.345235 -4.590294 2.096296 -0.000001 -0.000001 0.000000 2.425222 -3.676033 9.111008 -1.989618 -2.809130 20.839819 -1.781207 -5.160890 16.298353 -0.000001 0.000000 0.000002 -1.823638 -6.185064 16.114517 0.463922 -5.436904 29.301754 -0.580749 -1.424449 13.448712 -0.000000 -0.000001 0.000003 -2.610789 -8.509698 16.860699 4.262497 -4.409926 36.248183 2.204044 -3.515782 17.990030 -0.000000 -0.000001 0.000003 -6.022004 -13.997717 32.140859 10.830954 -2.809672 38.689671 6.502458 -3.428631 18.632024 -0.000001 0.000000 -0.000000 -17.901965 16.067171 15.323690 21.267677 12.985135 1.029186 -1.698861 0.302649 -8.244213 -0.473470 -0.000558 -0.000004 -0.000000 -0.000003 -0.000000 -7.394862 -3.981765 1.635202 21.213596 -0.857409 3.883175 -9.398458 2.300987 -2.051455 -1.495062 0.015614 -1.034054 0.000000 -0.000000 0.000000 
0.250759 115.591805 -2.284050 -2.261794 -6.144095 -3.127061 3.539669 -1.636567 0.302647 1.649032 -0.475936 2.403264 0.000000 0.000000 0.000000 1.641465 -0.210253 2.353476 -0.093890 0.283679 0.336394 0.006974 6.702318 -5.432572 0.000000 0.000000 0.000000 3.031712 0.333334 0.350524 0.000000 0.000000 0.000000 12.040974 -27.172062 -65.359651 -0.019229 -23.409186 0.139584 -61.652791 0.361624 -5.512473 13.147953 -4.206710 22.246768 -2.095476 31.047786 -7.361503 -6.566828 4.137870 -2.408528 -0.000002 -0.000001 -0.000000 -1.447955 2.315613 1.244526 -2.148826 2.464609 -18.676514 -1.905127 4.814312 -14.172605 0.000000 0.000001 0.000000 -6.062575 4.814484 -5.487600 0.262669 5.095132 -26.987843 -0.653756 1.140645 -11.787445 0.000000 0.000003 -0.000002 -11.103928 7.652443 -2.608524 4.032579 4.051318 -33.265234 2.108319 3.155456 -15.593153 0.000001 -0.000001 0.000002 -22.798936 15.170096 -14.593066 10.714854 2.545241 -34.824662 6.414178 3.075352 -15.312926 -0.000001 0.000000 -0.000000 0.541580 1.910654 -0.510204 0.000000 0.000000 0.000000 1.015074 3.562544 73.753674 -2.144229 16.565215 0.812413 -3.019896 -13.043811 9.267821 15.179368 -2.609896 -16.470059 -2.035364 -30.824128 6.974158 -6.093352 -5.113508 1.739107 -0.000001 0.000005 0.000002 2.488011 -3.698794 9.820465 -1.794570 -3.192410 23.310898 -1.623939 -5.551239 18.722882 -0.000000 -0.000000 0.000002 -1.627337 -6.716566 18.865558 0.709961 -5.816755 31.942350 -0.486932 -1.747737 15.366732 0.000001 0.000000 -0.000001 -1.876418 -8.740764 22.578582 4.547650 -4.801536 39.597004 2.333554 -3.922249 20.723089 -0.000000 0.000001 -0.000001 -5.077276 -16.447140 41.729051 11.004873 -3.099509 42.922698 6.638473 -3.820306 22.356705 -0.000000 0.000000 -0.000002 -18.830726 20.273357 17.074173 22.335238 11.035864 0.882157 -2.265350 0.342615 -7.737951 -0.473477 -0.000522 -0.000013 0.000000 -0.000003 -0.000000 -9.406599 -3.921409 1.198176 24.424823 0.922900 4.103373 -9.181676 3.381327 -1.127833 -0.557071 -0.000182 -0.000002 0.000000 0.000000 0.000000 
